<?xml version="1.0" encoding="utf-8"?>
<svg viewBox="0 0 100 32" width="100" height="35" xmlns="http://www.w3.org/2000/svg" xmlns:bx="https://boxy-svg.com">
  <g id="svgGroup" stroke-linecap="round" fill-rule="evenodd" font-size="9pt" stroke="#000" stroke-width="0mm" fill="#3e3e3e" style="stroke:#000;stroke-width:0mm;fill:#3e3e3e">
    <path d="M 38.28 5.041 L 30.6 27.241 A 2.681 2.681 0 0 1 30.527 27.457 Q 30.488 27.561 30.436 27.677 A 6.236 6.236 0 0 1 30.32 27.921 A 1.323 1.323 0 0 1 30.17 28.148 Q 29.895 28.493 29.26 28.981 Q 28.4 29.641 27.22 29.641 A 3.539 3.539 0 0 1 26.088 29.465 A 3.102 3.102 0 0 1 25.18 28.981 Q 24.62 28.551 24.306 28.13 A 2.293 2.293 0 0 1 24.04 27.681 L 19.36 13.881 Q 15.498 25.293 14.935 26.96 A 156.365 156.365 0 0 0 14.84 27.241 Q 14.778 27.427 14.596 27.733 A 7.372 7.372 0 0 1 14.48 27.921 Q 14.2 28.361 13.84 28.721 A 3.078 3.078 0 0 1 12.625 29.487 A 3.111 3.111 0 0 1 11.64 29.641 Q 10.36 29.641 9.54 29.041 A 5.278 5.278 0 0 1 9.08 28.666 Q 8.856 28.459 8.696 28.253 A 2.18 2.18 0 0 1 8.44 27.841 L 8.16 27.241 L 0.44 5.041 Q 0.102 4.025 0.023 3.412 A 2.648 2.648 0 0 1 0 3.081 Q 0 1.481 2.68 0.561 A 8.248 8.248 0 0 1 3.62 0.294 Q 4.237 0.161 4.78 0.161 Q 5.72 0.161 6.22 0.801 A 3.532 3.532 0 0 1 6.537 1.294 Q 6.851 1.874 7.12 2.761 L 11.52 16.121 L 15.88 2.961 A 4.227 4.227 0 0 1 16.487 1.767 A 3.461 3.461 0 0 1 17.92 0.641 A 2.958 2.958 0 0 1 18.49 0.462 Q 18.773 0.402 19.104 0.377 A 6.473 6.473 0 0 1 19.58 0.361 Q 20.6 0.361 21.48 1.021 A 5.297 5.297 0 0 1 21.946 1.411 Q 22.423 1.863 22.594 2.305 A 1.589 1.589 0 0 1 22.6 2.321 L 27.2 16.201 L 31.6 2.761 Q 31.83 2.099 31.998 1.686 A 7.753 7.753 0 0 1 32.12 1.401 Q 32.277 1.055 32.645 0.721 A 3.695 3.695 0 0 1 32.86 0.541 A 1.97 1.97 0 0 1 33.765 0.155 A 2.671 2.671 0 0 1 34.2 0.121 Q 34.821 0.121 35.61 0.361 A 8.48 8.48 0 0 1 36.08 0.521 A 8.189 8.189 0 0 1 37.123 0.971 Q 38.76 1.83 38.76 3.081 Q 38.76 3.535 38.393 4.692 A 24.583 24.583 0 0 1 38.28 5.041 Z" id="0" vector-effect="non-scaling-stroke"/>
    <path d="M 48.04 18.561 L 48.04 22.601 L 60.36 22.601 Q 61.28 22.601 61.74 22.661 A 2.246 2.246 0 0 1 62.121 22.747 Q 62.434 22.846 62.8 23.041 Q 63.88 23.601 63.88 26.161 Q 63.88 28.228 63.073 29.031 A 1.673 1.673 0 0 1 62.4 29.441 A 3.135 3.135 0 0 1 61.961 29.557 Q 61.475 29.651 60.771 29.674 A 14.3 14.3 0 0 1 60.32 29.681 L 44.48 29.681 A 7.84 7.84 0 0 1 43.384 29.61 Q 42.153 29.436 41.585 28.826 A 1.727 1.727 0 0 1 41.2 28.161 A 2.763 2.763 0 0 1 41.084 27.74 Q 40.991 27.283 40.968 26.606 A 14.022 14.022 0 0 1 40.96 26.121 L 40.96 3.881 Q 40.96 2.248 41.446 1.448 A 1.754 1.754 0 0 1 41.72 1.101 A 2.009 2.009 0 0 1 42.363 0.696 Q 42.992 0.436 43.992 0.377 A 10.476 10.476 0 0 1 44.6 0.361 L 60.36 0.361 A 23.223 23.223 0 0 1 60.791 0.364 Q 61.395 0.376 61.74 0.421 A 2.246 2.246 0 0 1 62.121 0.507 Q 62.434 0.606 62.8 0.801 Q 63.88 1.361 63.88 3.921 Q 63.88 5.988 63.073 6.791 A 1.673 1.673 0 0 1 62.4 7.201 A 3.135 3.135 0 0 1 61.961 7.317 Q 61.475 7.411 60.771 7.434 A 14.3 14.3 0 0 1 60.32 7.441 L 48.04 7.441 L 48.04 11.481 L 55.96 11.481 A 23.223 23.223 0 0 1 56.391 11.484 Q 56.995 11.496 57.34 11.541 A 2.246 2.246 0 0 1 57.721 11.627 Q 58.034 11.726 58.4 11.921 Q 59.48 12.481 59.48 15.041 A 7.84 7.84 0 0 1 59.41 16.137 Q 59.235 17.368 58.625 17.935 A 1.727 1.727 0 0 1 57.96 18.321 A 3.135 3.135 0 0 1 57.521 18.437 Q 57.035 18.531 56.331 18.554 A 14.3 14.3 0 0 1 55.88 18.561 L 48.04 18.561 Z" id="1" vector-effect="non-scaling-stroke"/>
    <path d="M 87.478 7.471 C 85.584 5.542 82.986 4.466 80.281 4.489 C 78.989 4.489 77.734 4.752 76.516 5.276 C 75.3 5.8 74.222 6.521 73.285 7.439 C 72.9 7.817 72.55 8.227 72.237 8.666 C 71.755 9.346 71.353 10.081 71.038 10.852 C 70.981 10.99 70.927 11.129 70.875 11.269 C 70.416 12.537 70.187 13.874 70.195 15.221 C 70.195 18.069 71.193 20.523 73.187 22.583 C 73.249 22.646 73.312 22.709 73.375 22.772 C 75.237 24.667 77.795 25.715 80.45 25.674 C 83.297 25.674 85.694 24.628 87.643 22.54 C 89.59 20.452 90.565 17.923 90.565 14.955 C 90.565 14.884 90.565 14.816 90.564 14.746 C 90.577 12.012 89.47 9.392 87.502 7.495 C 87.494 7.487 87.487 7.479 87.478 7.471 Z" id="2" vector-effect="non-scaling-stroke" style="stroke: none;"/>
    <path d="M 90.071 4.659 C 87.492 2.032 83.952 0.567 80.269 0.601 C 78.51 0.601 76.8 0.958 75.145 1.671 C 73.487 2.384 72.022 3.368 70.744 4.614 C 70.222 5.132 69.743 5.689 69.318 6.289 C 68.662 7.214 68.114 8.213 67.684 9.265 C 67.607 9.45 67.533 9.641 67.463 9.832 C 66.839 11.555 66.525 13.378 66.538 15.215 C 66.538 19.09 67.895 22.431 70.611 25.237 C 70.695 25.325 70.78 25.409 70.869 25.495 C 73.403 28.074 76.884 29.501 80.501 29.443 C 84.378 29.443 87.643 28.023 90.293 25.179 C 92.947 22.335 94.273 18.893 94.273 14.851 C 94.273 14.756 94.271 14.661 94.271 14.567 C 94.29 10.843 92.783 7.275 90.103 4.693 C 90.09 4.683 90.08 4.669 90.071 4.659 Z" id="path-1" style="fill: none; stroke: rgb(58, 173, 255); stroke-width: 2px;" bx:origin="0.5 0.503"/>
  </g>
</svg>
