<svg width="94.883" height="30.162" viewBox="0 0 94.883 30.162" xmlns="http://www.w3.org/2000/svg"><g id="svgGroup" stroke-linecap="round" fill-rule="evenodd" font-size="9pt" stroke="#000" stroke-width="0.25mm" fill="black" style="stroke:#000;stroke-width:0.25mm;fill:black"><path d="M 38.28 5.041 L 30.6 27.241 A 2.681 2.681 0 0 1 30.527 27.457 Q 30.488 27.561 30.436 27.677 A 6.236 6.236 0 0 1 30.32 27.921 A 1.323 1.323 0 0 1 30.17 28.148 Q 29.895 28.493 29.26 28.981 Q 28.4 29.641 27.22 29.641 A 3.539 3.539 0 0 1 26.088 29.465 A 3.102 3.102 0 0 1 25.18 28.981 Q 24.62 28.551 24.306 28.13 A 2.293 2.293 0 0 1 24.04 27.681 L 19.36 13.881 Q 15.498 25.293 14.935 26.96 A 156.365 156.365 0 0 0 14.84 27.241 Q 14.778 27.427 14.596 27.733 A 7.372 7.372 0 0 1 14.48 27.921 Q 14.2 28.361 13.84 28.721 A 3.078 3.078 0 0 1 12.625 29.487 A 3.111 3.111 0 0 1 11.64 29.641 Q 10.36 29.641 9.54 29.041 A 5.278 5.278 0 0 1 9.08 28.666 Q 8.856 28.459 8.696 28.253 A 2.18 2.18 0 0 1 8.44 27.841 L 8.16 27.241 L 0.44 5.041 Q 0.102 4.025 0.023 3.412 A 2.648 2.648 0 0 1 0 3.081 Q 0 1.481 2.68 0.561 A 8.248 8.248 0 0 1 3.62 0.294 Q 4.237 0.161 4.78 0.161 Q 5.72 0.161 6.22 0.801 A 3.532 3.532 0 0 1 6.537 1.294 Q 6.851 1.874 7.12 2.761 L 11.52 16.121 L 15.88 2.961 A 4.227 4.227 0 0 1 16.487 1.767 A 3.461 3.461 0 0 1 17.92 0.641 A 2.958 2.958 0 0 1 18.49 0.462 Q 18.773 0.402 19.104 0.377 A 6.473 6.473 0 0 1 19.58 0.361 Q 20.6 0.361 21.48 1.021 A 5.297 5.297 0 0 1 21.946 1.411 Q 22.423 1.863 22.594 2.305 A 1.589 1.589 0 0 1 22.6 2.321 L 27.2 16.201 L 31.6 2.761 Q 31.83 2.099 31.998 1.686 A 7.753 7.753 0 0 1 32.12 1.401 Q 32.277 1.055 32.645 0.721 A 3.695 3.695 0 0 1 32.86 0.541 A 1.97 1.97 0 0 1 33.765 0.155 A 2.671 2.671 0 0 1 34.2 0.121 Q 34.821 0.121 35.61 0.361 A 8.48 8.48 0 0 1 36.08 0.521 A 8.189 8.189 0 0 1 37.123 0.971 Q 38.76 1.83 38.76 3.081 Q 38.76 3.535 38.393 4.692 A 24.583 24.583 0 0 1 38.28 5.041 Z" id="0" vector-effect="non-scaling-stroke"/><path d="M 48.04 18.561 L 48.04 22.601 L 60.36 22.601 Q 61.28 22.601 61.74 22.661 A 2.246 2.246 0 0 1 62.121 22.747 Q 62.434 22.846 62.8 23.041 Q 63.88 23.601 63.88 26.161 Q 63.88 28.228 63.073 29.031 A 1.673 1.673 0 0 1 62.4 29.441 A 3.135 3.135 0 0 1 61.961 29.557 Q 61.475 29.651 60.771 29.674 A 14.3 14.3 0 0 1 60.32 29.681 L 44.48 29.681 A 7.84 7.84 0 0 1 43.384 29.61 Q 42.153 29.436 41.585 28.826 A 1.727 1.727 0 0 1 41.2 28.161 A 2.763 2.763 0 0 1 41.084 27.74 Q 40.991 27.283 40.968 26.606 A 14.022 14.022 0 0 1 40.96 26.121 L 40.96 3.881 Q 40.96 2.248 41.446 1.448 A 1.754 1.754 0 0 1 41.72 1.101 A 2.009 2.009 0 0 1 42.363 0.696 Q 42.992 0.436 43.992 0.377 A 10.476 10.476 0 0 1 44.6 0.361 L 60.36 0.361 A 23.223 23.223 0 0 1 60.791 0.364 Q 61.395 0.376 61.74 0.421 A 2.246 2.246 0 0 1 62.121 0.507 Q 62.434 0.606 62.8 0.801 Q 63.88 1.361 63.88 3.921 Q 63.88 5.988 63.073 6.791 A 1.673 1.673 0 0 1 62.4 7.201 A 3.135 3.135 0 0 1 61.961 7.317 Q 61.475 7.411 60.771 7.434 A 14.3 14.3 0 0 1 60.32 7.441 L 48.04 7.441 L 48.04 11.481 L 55.96 11.481 A 23.223 23.223 0 0 1 56.391 11.484 Q 56.995 11.496 57.34 11.541 A 2.246 2.246 0 0 1 57.721 11.627 Q 58.034 11.726 58.4 11.921 Q 59.48 12.481 59.48 15.041 A 7.84 7.84 0 0 1 59.41 16.137 Q 59.235 17.368 58.625 17.935 A 1.727 1.727 0 0 1 57.96 18.321 A 3.135 3.135 0 0 1 57.521 18.437 Q 57.035 18.531 56.331 18.554 A 14.3 14.3 0 0 1 55.88 18.561 L 48.04 18.561 Z" id="1" vector-effect="non-scaling-stroke"/><path d="M 90.486 4.247 A 14.184 14.184 0 0 0 80.24 0.001 Q 77.48 0.001 74.88 1.121 Q 72.28 2.241 70.28 4.201 A 13.157 13.157 0 0 0 68.787 5.948 A 15.537 15.537 0 0 0 67.08 9.061 A 15.477 15.477 0 0 0 66.849 9.654 A 16.227 16.227 0 0 0 65.88 15.281 Q 65.88 21.361 70.14 25.761 A 16.93 16.93 0 0 0 70.408 26.031 A 13.817 13.817 0 0 0 80.48 30.161 Q 86.56 30.161 90.72 25.701 Q 94.88 21.241 94.88 14.901 A 18.232 18.232 0 0 0 94.878 14.604 A 14.238 14.238 0 0 0 90.52 4.281 A 17.952 17.952 0 0 0 90.486 4.247 Z M 72.96 15.081 A 8.988 8.988 0 0 0 73.34 17.752 A 7.234 7.234 0 0 0 75.26 20.861 A 8.462 8.462 0 0 0 77.287 22.334 A 6.762 6.762 0 0 0 80.4 23.081 A 7.059 7.059 0 0 0 84.868 21.485 A 9.418 9.418 0 0 0 85.52 20.921 A 7.169 7.169 0 0 0 87.683 16.694 A 10.184 10.184 0 0 0 87.8 15.121 A 9.333 9.333 0 0 0 87.449 12.497 A 7.144 7.144 0 0 0 85.5 9.281 A 8.453 8.453 0 0 0 83.463 7.816 A 6.812 6.812 0 0 0 80.36 7.081 A 6.912 6.912 0 0 0 76.003 8.632 A 9.386 9.386 0 0 0 75.24 9.301 A 7.442 7.442 0 0 0 73.016 14.001 A 10.211 10.211 0 0 0 72.96 15.081 Z" id="2" vector-effect="non-scaling-stroke"/></g></svg>
