<?xml version="1.0" encoding="UTF-8" standalone="no"?>
<svg xmlns:dc="http://purl.org/dc/elements/1.1/" xmlns:cc="http://creativecommons.org/ns#" xmlns:rdf="http://www.w3.org/1999/02/22-rdf-syntax-ns#" xmlns:svg="http://www.w3.org/2000/svg" xmlns="http://www.w3.org/2000/svg" id="svg24" xml:space="preserve" viewBox="00251200" height="200" width="251" version="1.1">

<g id="g10" transform="translate(173.1  92.12)">
  <g id="text8" style="font-style:normal;font-weight:normal;font-si ze:208px;font-family:'FredokaOne';white-space:pre;opacity:1;fill:#5eaaff;fill-rule:non zero;stroke:none;stroke-width:1;stroke-linecap:butt;stroke-linejoin:miter;stroke-miterlimit:4;stroke-dasharray:none;stroke-dashoffset:0" aria-label="O">
  <path id="path30" style="" d="m -0.72799847   -88.996004  q 30.78400047  053.45600047  22.25622.672  22.25622.672  55.3280  32.864 -21.632  56.16 -21.632  23.088 -53.24800047  23.088 -31.61599953  0 -53.87199953   -22.88 -22.048   -22.88 -22.048   -54.49599970   -17.26400036.24   -32.24000036.24   -15.18416.64   -25.37610.4   -10.19223.92   -16.01613.52   -5.82427.87199953   -5.824  z m  -37.85599953  78.416  q 0  18.512000311.856  30.1612.064  11.4426.83199953  11.4414.76800047  026.62400047   -11.23211.856   -11.231999711.856   -30.160   -18.928 -12.064   -30.368 -11.856   -11.44 -26.62400047   -11.44 -14.76799953  0 -26.62399953  11.648 -11.856  11.44 -11.856  29.952 z"/>
  </g>
</g>
<g id="g16" transform="translate(104.2  86.76)">
<g id="text14" style="font-style:normal;font-weight:normal;font-si ze:84px;font-family:'FredokaOne';text-decoration:underline;text-decoration-line:underline;white-space:pre;opacity:1;fill:#000000;fill-rule:non zero;stroke:none;stroke-width:1;stroke-linecap:butt;stroke-linejoin:miter;stroke-miterlimit:4;stroke-dasharray:none;stroke-dashoffset:0" aria-label="WEO">
<path id="path33" style="" d="m -24.272003   -34.846001 q 5.628  2.0165.628  5.3760  1.092 -1.008  4.116l -16.128  46.62 q  -0.168  0.588 -0.588  1.428 -0.42  0.84 -2.268  2.268 -1.764  1.344 -4.284  1.344 -2.436  0 -4.284   -1.344 -1.764   -1.428 -2.352   -2.772l -9.828   -28.9799996  q  -9.324  27.5519996 -9.492  28.0559996 -0.168  0.504 -0.756  1.428 -0.588  0.924 -1.344  1.68 -1.932  1.932 -4.62  1.932 -2.688  0 -4.452   -1.26 -1.68   -1.26 -2.268   -2.52l -0.588   -1.26 -16.212   -46.62  q  -0.923997   -2.772 -0.923997   -4.1160   -3.365.627997   -5.2922.436   -0.844.368   -0.842.016  03.024  1.3441.092  1.3441.932  4.116l9.24  28.05600049.156   -27.6360004  q 1.176   -3.5284.284   -4.8721.344   -0.5883.444   -0.5882.184  04.032  1.4281.848  1.3442.352  2.688l9.66  29.14800049.24   -28.2240004  q 0.672   -1.9321.092   -2.8560.42   -0.9241.512   -1.7641.176   -0.9242.856   -0.9241.68  03.948  0.84 z"/>
<path id="path35" style="" d="M0.76393445  11.521999H26.635934  q 1.932  02.856  0.1681.008  0.0842.268  0.7562.268  1.1762.268  6.5520  5.88 -3.108  6.888 -1.428  0.504 -4.368  0.504H -6.7120656  q  -5.8800004  0 -6.8880004   -3.192 -0.504   -1.344 -0.504   -4.284v -46.704  q 0   -4.2841.596   -5.7961.596   -1.5966.0480004   -1.596H26.635934  q 1.932  02.856  0.1681.008  0.0842.268  0.7562.268  1.1762.268  6.5520  5.88 -3.108  6.888 -1.428  0.504 -4.368  0.504H0.76393445 v8.484H17.395934  q 1.932  02.856  0.1681.008  0.0842.268  0.7562.268  1.17600042.268  6.55200040  5.88 -3.192  6.888 -1.428  0.504 -4.368  0.504H0.76393445 z"/>
<path id="path37" style="" d="m68.440372   -35.938001  q 12.432  021.588  8.9889.156  8.9889.156  22.34400040  13.272 -8.736  22.6799996 -8.736  9.324 -21.504  9.324 -12.768  0 -21.756   -9.24 -8.904   -9.2399996 -8.904   -22.00799960   -6.97200042.52   -13.02000042.52   -6.1326.72   -10.2484.2   -4.1169.66   -6.4685.46   -2.35211.256   -2.352  z m  -15.288  31.6680004  q 0  7.4764.788  12.184.872  4.619999610.836  4.61999965.964  010.752   -4.53599964.788   -4.5364.788   -12.180   -7.6440004 -4.872   -12.2640004 -4.788   -4.62 -10.752   -4.62 -5.964  0 -10.752  4.704 -4.788  4.62 -4.788  12.0960004 z"/>
</g>
</g>
<g id="g22" transform="translate(114.83  171.76)">
<g id="text20" style="font-style:normal;font-weight:normal;font-si ze:84px;font-family:'FredokaOne';white-space:pre;opacity:1;fill:#000000;fill-rule:non zero;stroke:none;stroke-width:1;stroke-linecap:butt;stroke-linejoin:miter;stroke-miterlimit:4;stroke-dasharray:none;stroke-dashoffset:0" aria-label="GEO">
<path id="path40" style="" d="m -53.882002   -10.738001h14.784  q 4.536  0.1685.544  2.35200040.84  1.5960.84  4.704 v14.797999  q 0  2.688 -2.352  5.124 -7.056  7.308 -21.168  7.308 -12.516  0 -21.756   -9.408 -9.24   -9.4919996 -9.24   -22.84799960   -13.35600049.408   -22.26000049.408   -8.98822.176   -8.9889.912  018.732  6.5522.268  1.682.268  3.780  2.016 -1.932  4.704 -3.276  4.452 -5.964  4.452 -1.596  0 -5.124   -2.268 -3.528   -2.352 -8.4   -2.352 -6.384  0 -11.34  4.536 -4.956  4.452 -4.956  11.76000040  7.2245.04  12.3485.04  5.039999611.424  5.03999964.62  08.316   -1.512 v1.6099994h -6.636  q  -2.604  0 -3.696   -0.67200001 -1.092   -0.672 -1.428   -1.932 -0.336   -1.34399999 -0.336   -3.527999990   -2.2680.336   -3.6120.42   -1.3441.428   -1.8481.512   -0.75600044.032   -0.7560004 z"/>
<path id="path42" style="" d="m -11.055127  11.521999h25.872  q 1.932  02.856  0.1681.008  0.0842.268  0.7562.268  1.1762.268  6.5520  5.88 -3.108  6.888 -1.428  0.504 -4.368  0.504h -33.264  q  -5.88  0 -6.888   -3.192 -0.504   -1.344 -0.504   -4.284 v -46.704  q 0   -4.2841.596   -5.7961.596   -1.5966.048   -1.596h33.096  q 1.932  02.856  0.1681.008  0.0842.268  0.7562.268  1.1762.268  6.5520  5.88 -3.108  6.888 -1.428  0.504 -4.368  0.504h -25.788 v8.484H5.5768732  q 1.932  02.856  0.1681.008  0.0842.2679998  0.7562.268  1.17600042.268  6.55200040  5.88 -3.1919998  6.888 -1.428  0.504 -4.368  0.504H -11.055127 z"/>
<path id="path44" style="" d="m56.621311   -35.938001  q 12.432  021.588  8.9889.156  8.9889.156  22.34400040  13.272 -8.736  22.6799996 -8.736  9.324 -21.504  9.324 -12.768  0 -21.756   -9.24 -8.904   -9.2399996 -8.904   -22.00799960   -6.97200042.52   -13.02000042.52   -6.1326.72   -10.2484.2   -4.1169.66   -6.4685.46   -2.35211.256   -2.352  z m  -15.288  31.6680004  q 0  7.4764.788  12.184.872  4.619999610.836  4.61999965.964  010.752   -4.53599964.788   -4.5364.788   -12.180   -7.6440004 -4.872   -12.2640004 -4.788   -4.62 -10.752   -4.62 -5.964  0 -10.752  4.704 -4.788  4.62 -4.788  12.0960004 z"/>
</g>
</g>
</svg>
