<svg width="237.209" height="75.406" viewBox="0 0 237.209 75.406" xmlns="http://www.w3.org/2000/svg"><g id="svgGroup" stroke-linecap="round" fill-rule="evenodd" font-size="9pt" stroke="#000" stroke-width="0.25mm" fill="black" style="stroke:#000;stroke-width:0.25mm;fill:black"><path d="M 95.7 12.601 L 76.5 68.101 A 6.703 6.703 0 0 1 76.318 68.643 Q 76.12 69.161 75.8 69.801 Q 75.3 70.801 73.15 72.451 A 7.981 7.981 0 0 1 68.697 74.081 A 10.095 10.095 0 0 1 68.05 74.101 A 8.848 8.848 0 0 1 65.221 73.663 A 7.756 7.756 0 0 1 62.95 72.451 A 14.153 14.153 0 0 1 61.748 71.425 Q 61.174 70.872 60.766 70.325 A 5.733 5.733 0 0 1 60.1 69.201 L 48.4 34.701 A 688180.23 688180.23 0 0 0 45.795 42.398 Q 38.543 63.831 37.337 67.399 A 390.982 390.982 0 0 0 37.1 68.101 Q 36.945 68.567 36.489 69.332 A 18.429 18.429 0 0 1 36.2 69.801 Q 35.5 70.901 34.6 71.801 A 7.696 7.696 0 0 1 31.563 73.718 A 7.778 7.778 0 0 1 29.1 74.101 A 11.197 11.197 0 0 1 26.819 73.882 Q 25.341 73.574 24.194 72.837 A 6.855 6.855 0 0 1 23.85 72.601 A 13.196 13.196 0 0 1 22.701 71.664 Q 22.141 71.148 21.741 70.633 A 5.45 5.45 0 0 1 21.1 69.601 L 20.4 68.101 L 1.1 12.601 A 38.388 38.388 0 0 1 0.619 11.058 Q 0.19 9.565 0.059 8.53 A 6.619 6.619 0 0 1 0 7.701 A 4.725 4.725 0 0 1 1.509 4.287 Q 2.985 2.805 5.904 1.69 A 24.593 24.593 0 0 1 6.7 1.401 A 20.621 20.621 0 0 1 9.049 0.736 Q 10.254 0.474 11.347 0.417 A 11.556 11.556 0 0 1 11.95 0.401 A 5.517 5.517 0 0 1 13.436 0.59 A 3.968 3.968 0 0 1 15.55 2.001 A 8.83 8.83 0 0 1 16.343 3.234 Q 17.128 4.684 17.8 6.901 L 28.8 40.301 L 39.7 7.401 Q 41.1 3.201 44.8 1.601 A 7.395 7.395 0 0 1 46.226 1.155 Q 46.932 1.004 47.76 0.943 A 16.182 16.182 0 0 1 48.95 0.901 A 7.656 7.656 0 0 1 53.319 2.28 A 9.57 9.57 0 0 1 53.7 2.551 Q 55.9 4.201 56.5 5.801 L 68 40.501 L 79 6.901 Q 79.575 5.248 79.995 4.215 A 19.383 19.383 0 0 1 80.3 3.501 Q 80.693 2.637 81.611 1.803 A 9.238 9.238 0 0 1 82.15 1.351 Q 83.5 0.301 85.5 0.301 A 9.947 9.947 0 0 1 87.223 0.463 Q 88.075 0.614 89.025 0.903 A 21.201 21.201 0 0 1 90.2 1.301 A 20.473 20.473 0 0 1 92.808 2.427 Q 95.595 3.89 96.484 5.807 A 4.451 4.451 0 0 1 96.9 7.701 A 4.984 4.984 0 0 1 96.834 8.437 Q 96.619 9.845 95.7 12.601 Z" id="0" vector-effect="non-scaling-stroke"/><path d="M 120.1 46.401 L 120.1 56.501 L 150.9 56.501 Q 153.2 56.501 154.35 56.651 Q 155.5 56.801 157 57.601 A 3.856 3.856 0 0 1 158.605 59.278 Q 159.7 61.326 159.7 65.401 Q 159.7 70.57 157.683 72.576 A 4.182 4.182 0 0 1 156 73.601 A 7.837 7.837 0 0 1 154.901 73.891 Q 153.316 74.201 150.8 74.201 L 111.2 74.201 Q 104.2 74.201 103 70.401 A 6.908 6.908 0 0 1 102.71 69.351 Q 102.4 67.817 102.4 65.301 L 102.4 9.701 A 21.404 21.404 0 0 1 102.519 7.355 Q 102.875 4.139 104.3 2.751 A 5.021 5.021 0 0 1 105.907 1.739 Q 107.48 1.089 109.979 0.943 A 26.19 26.19 0 0 1 111.5 0.901 L 150.9 0.901 Q 153.2 0.901 154.35 1.051 Q 155.5 1.201 157 2.001 A 3.856 3.856 0 0 1 158.605 3.678 Q 159.7 5.726 159.7 9.801 Q 159.7 14.97 157.683 16.976 A 4.182 4.182 0 0 1 156 18.001 A 7.837 7.837 0 0 1 154.901 18.291 Q 153.316 18.601 150.8 18.601 L 120.1 18.601 L 120.1 28.701 L 139.9 28.701 Q 142.2 28.701 143.35 28.851 Q 144.5 29.001 146 29.801 A 3.856 3.856 0 0 1 147.605 31.478 Q 148.7 33.526 148.7 37.601 Q 148.7 44.601 144.9 45.801 A 7.837 7.837 0 0 1 143.801 46.091 Q 142.216 46.401 139.7 46.401 L 120.1 46.401 Z" id="1" vector-effect="non-scaling-stroke"/><path d="M 226.215 10.618 A 35.46 35.46 0 0 0 200.6 0.001 Q 193.7 0.001 187.2 2.801 Q 180.7 5.601 175.7 10.501 Q 170.7 15.401 167.7 22.651 A 38.693 38.693 0 0 0 167.122 24.135 A 40.566 40.566 0 0 0 164.7 38.201 Q 164.7 53.401 175.35 64.401 Q 186 75.401 201.2 75.401 A 40.549 40.549 0 0 0 202.614 75.377 A 33.52 33.52 0 0 0 226.8 64.251 Q 237.2 53.101 237.2 37.251 A 45.576 45.576 0 0 0 237.194 36.511 A 35.596 35.596 0 0 0 226.3 10.701 A 44.919 44.919 0 0 0 226.215 10.618 Z M 182.4 37.701 Q 182.4 46.601 188.15 52.151 Q 193.9 57.701 201 57.701 A 17.648 17.648 0 0 0 212.169 53.713 A 23.545 23.545 0 0 0 213.8 52.301 Q 219.5 46.901 219.5 37.801 A 23.333 23.333 0 0 0 218.623 31.241 A 17.859 17.859 0 0 0 213.75 23.201 A 21.133 21.133 0 0 0 208.658 19.54 A 17.029 17.029 0 0 0 200.9 17.701 A 17.28 17.28 0 0 0 190.008 21.58 A 23.465 23.465 0 0 0 188.1 23.251 A 18.606 18.606 0 0 0 182.539 35.002 A 25.527 25.527 0 0 0 182.4 37.701 Z" id="2" vector-effect="non-scaling-stroke"/></g></svg>
